<?xml version="1.0" standalone="no"?>
<!DOCTYPE svg PUBLIC "-//W3C//DTD SVG 20010904//EN"
 "http://www.w3.org/TR/2001/REC-SVG-20010904/DTD/svg10.dtd">
<svg version="1.0" xmlns="http://www.w3.org/2000/svg"
 width="300.000000pt" height="297.000000pt" viewBox="0 0 300.000000 297.000000"
 preserveAspectRatio="xMidYMid meet">
<metadata>
Created by potrace 1.10, written by Peter Selinger 2001-2011
</metadata>
<g transform="translate(0.000000,297.000000) scale(0.100000,-0.100000)"
fill="#265cad" stroke="none">
<path d="M1215 2905 c-5 -2 -22 -6 -37 -9 -41 -9 -83 -51 -123 -122 -24 -43
-50 -74 -78 -92 -36 -24 -48 -27 -111 -23 -172 8 -180 8 -224 -22 -55 -36 -78
-84 -87 -182 -4 -44 -12 -89 -17 -100 -25 -50 -73 -85 -150 -111 -123 -41
-168 -90 -168 -182 0 -29 11 -78 25 -116 27 -72 31 -125 12 -169 -7 -15 -42
-58 -79 -95 -48 -50 -69 -80 -78 -112 -21 -80 6 -150 84 -214 50 -41 86 -106
86 -157 0 -19 -12 -61 -25 -94 -34 -82 -39 -114 -25 -166 18 -66 70 -112 158
-138 80 -24 135 -65 156 -115 7 -17 15 -67 19 -110 5 -65 11 -87 34 -120 47
-68 79 -78 209 -71 158 8 190 -8 265 -138 40 -68 75 -95 142 -111 41 -10 103
10 167 54 108 73 166 73 275 0 75 -50 120 -63 175 -51 59 13 101 50 148 129
61 103 123 132 237 111 32 -6 78 -8 102 -4 82 12 152 101 153 193 0 121 48
188 158 222 87 27 137 61 162 110 27 52 25 104 -5 184 -45 120 -28 199 60 270
113 93 114 225 3 320 -92 79 -110 158 -63 274 59 146 9 246 -147 293 -119 35
-168 104 -168 235 0 72 -54 154 -114 174 -17 5 -85 9 -152 7 -118 -2 -121 -1
-157 26 -21 16 -48 50 -62 76 -53 106 -102 141 -193 141 -53 0 -65 -4 -128
-47 -62 -42 -76 -47 -134 -50 -54 -3 -71 0 -102 19 -106 67 -126 77 -158 82
-19 3 -39 3 -45 1z m179 -747 c20 -29 20 -67 0 -96 -9 -13 -14 -25 -13 -27 2
-2 109 -80 237 -173 l234 -170 54 19 c78 28 181 26 225 -4 19 -12 35 -32 37
-42 4 -28 -777 -809 -804 -803 -10 2 -29 18 -41 37 -28 42 -31 135 -7 221 l16
57 -162 219 c-89 120 -168 225 -175 232 -10 11 -18 10 -48 -4 -34 -16 -37 -16
-62 0 -30 19 -47 58 -38 83 3 10 107 120 232 246 213 214 228 227 263 227 27
0 41 -6 52 -22z m627 -1053 c68 -81 128 -157 134 -171 12 -33 -21 -70 -55 -59
-23 7 -320 250 -320 262 0 9 102 113 111 113 4 0 62 -65 130 -145z"/>
<path d="M1270 1935 c-30 -30 -32 -37 -20 -49 8 -7 98 -84 199 -171 l183 -157
41 30 c23 16 43 34 45 40 3 9 -394 342 -408 342 -4 0 -21 -16 -40 -35z"/>
</g>
</svg>
