<?xml version="1.0" standalone="no"?>
<!DOCTYPE svg PUBLIC "-//W3C//DTD SVG 20010904//EN"
 "http://www.w3.org/TR/2001/REC-SVG-20010904/DTD/svg10.dtd">
<svg version="1.0" xmlns="http://www.w3.org/2000/svg"
 width="300.000000pt" height="297.000000pt" viewBox="0 0 300.000000 297.000000"
 preserveAspectRatio="xMidYMid meet">
<metadata>
Created by potrace 1.10, written by Peter Selinger 2001-2011
</metadata>
<g transform="translate(0.000000,297.000000) scale(0.100000,-0.100000)"
fill="#265cad" stroke="none">
<path d="M1193 2901 c-50 -13 -96 -53 -127 -112 -37 -69 -62 -96 -111 -121
-34 -18 -48 -19 -110 -12 -106 12 -146 10 -188 -11 -61 -29 -88 -79 -98 -182
-15 -142 -49 -184 -180 -223 -38 -11 -81 -32 -97 -45 -66 -55 -79 -145 -37
-245 45 -107 26 -194 -58 -263 -80 -65 -110 -141 -87 -213 7 -21 44 -70 85
-114 98 -105 106 -147 54 -276 -25 -61 -30 -86 -25 -118 14 -84 68 -138 164
-163 123 -32 166 -86 176 -221 4 -69 10 -90 33 -124 48 -70 78 -80 218 -73
l120 7 45 -29 c31 -20 54 -47 74 -84 33 -63 70 -105 108 -125 42 -22 127 -18
170 9 20 12 57 35 82 50 56 35 114 44 158 26 18 -7 61 -32 96 -56 56 -38 70
-43 120 -43 75 0 118 24 159 86 73 111 82 122 129 144 45 22 51 23 136 11 101
-14 144 -6 191 38 43 39 55 70 63 155 12 133 56 189 173 222 79 23 129 58 152
107 26 58 24 100 -11 187 -16 41 -29 89 -29 105 -1 49 33 108 88 156 86 75
110 153 76 237 -9 20 -44 64 -79 98 -94 90 -104 137 -56 254 33 80 37 130 15
182 -19 47 -76 95 -127 108 -138 35 -198 103 -198 225 0 90 -42 164 -108 192
-25 10 -59 12 -146 7 -148 -9 -177 6 -243 124 -48 86 -89 115 -168 120 -62 4
-65 3 -141 -47 -116 -76 -173 -79 -261 -16 -92 67 -137 81 -200 66z m135 -70
c112 -68 124 -72 192 -69 59 3 75 9 144 52 73 45 81 48 132 44 62 -5 101 -35
135 -101 31 -59 86 -114 132 -132 31 -11 72 -15 157 -13 102 3 118 1 142 -17
38 -28 55 -69 63 -155 13 -130 68 -199 190 -238 138 -43 174 -117 120 -247
-29 -70 -32 -145 -9 -200 8 -21 46 -70 85 -111 65 -69 69 -76 69 -119 0 -58
-16 -88 -78 -148 -72 -68 -96 -122 -89 -200 3 -34 14 -84 26 -110 51 -117 9
-195 -126 -237 -124 -38 -175 -102 -191 -237 -17 -144 -69 -192 -191 -177
-160 19 -216 -5 -296 -128 -57 -87 -84 -107 -149 -109 -36 -2 -56 4 -98 31
-92 58 -124 70 -185 70 -52 0 -67 -6 -143 -50 -140 -82 -199 -69 -279 60 -34
55 -59 82 -95 105 -52 32 -75 34 -232 24 -54 -3 -65 -1 -97 24 -47 35 -57 55
-63 120 -15 170 -55 226 -196 273 -140 46 -166 110 -112 271 40 120 26 171
-81 284 -98 104 -97 169 5 265 101 97 122 188 71 307 -12 28 -21 70 -21 99 0
45 4 54 38 88 25 25 59 44 105 59 131 44 180 106 193 249 4 37 13 79 20 94 33
63 107 87 213 68 108 -19 179 15 248 119 55 84 81 110 117 120 43 12 83 3 134
-28z"/>
<path d="M1260 2183 c-86 -74 -432 -427 -441 -450 -19 -50 -11 -84 28 -120 33
-31 41 -35 79 -30 52 5 50 8 210 -208 168 -226 158 -207 138 -267 -25 -76 -16
-186 20 -232 34 -45 61 -59 94 -51 15 4 95 75 188 167 137 135 163 157 168
140 9 -27 42 -59 160 -156 152 -125 167 -135 207 -136 68 0 104 75 65 135 -37
56 -242 289 -267 304 l-28 16 154 156 c85 86 159 168 164 182 26 69 -56 137
-165 137 -31 0 -83 -7 -116 -16 -71 -18 -40 -34 -296 154 l-183 134 6 43 c12
74 -37 135 -108 135 -24 0 -45 -10 -77 -37z m131 -22 c34 -34 37 -63 9 -91
-26 -26 -25 -37 2 -51 27 -15 395 -284 426 -312 22 -20 23 -20 53 -3 33 19
156 33 210 22 36 -6 92 -51 87 -68 -7 -19 -801 -808 -814 -808 -20 0 -54 55
-63 103 -9 49 0 136 19 189 l12 34 -153 206 c-85 113 -163 218 -175 234 -20
27 -21 27 -44 11 -14 -9 -34 -17 -46 -17 -27 0 -74 53 -74 83 0 31 467 497
499 497 12 0 36 -13 52 -29z m615 -1035 c154 -182 164 -196 152 -222 -6 -12
-20 -26 -33 -32 -20 -9 -39 3 -181 120 -88 71 -163 133 -167 138 -8 7 102 129
114 126 4 0 55 -59 115 -130z"/>
<path d="M1272 1941 c-18 -18 -32 -37 -30 -41 3 -7 354 -313 383 -334 9 -7 22
-2 43 15 16 13 38 29 48 35 11 7 17 14 14 16 -3 2 -77 62 -165 133 -88 71
-182 147 -210 170 l-50 40 -33 -34z m92 -63 c172 -135 296 -242 287 -251 -14
-14 -39 -1 -103 54 -29 26 -93 82 -143 125 -49 42 -94 83 -98 91 -14 23 14 14
57 -19z"/>
</g>
</svg>
